{"title":"Jigar 1992 {BRRip} {x264} {Hindi} {rdx004} {DMRG}","uid":8210188,"size":722172197,"categoryP":"video","categoryS":"movies","magnet":"?xt=urn:btih:c4ff88f8ab8694da51ef5e710d857ee3baa6570a&amp;dn=Jigar+1992+%7BBRRip%7D+%7Bx264%7D+%7BHindi%7D+%7Brdx004%7D+%7BDMRG%7D&amp;tr=udp%3A%2F%2Ftracker.openbittorrent.com%3A80&amp;tr=udp%3A%2F%2Fopen.demonii.com%3A1337&amp;tr=udp%3A%2F%2Ftracker.coppersurfer.tk%3A6969&amp;tr=udp%3A%2F%2Fexodus.desync.com%3A6969","seeders":0,"leechers":1,"uploader":"rdx004","files":3,"time":1362224266,"description":"Cast\n\nAjay Devgan, \nKarisma Kapoor, \nAjit, \nIshrat Ali, \nArjun, \nSalim Khan Ding Dong, \nGulshan Grover, \nAruna Irani, \nJamuna, \nGoga Kapoor, \nHussain Khan,\nMadhavi, \nYunus Parvez, \nParesh Rawal, \nAsha Sharma, \nGurubachan Singh, \nSudhir, \nBrijesh Tiwari \n\n\nStory\n\n\nSimpleton Raj Verma alias Raju return home one\nday to find that his sister is publicly raped by gangster \nBeharry and one of his wrestlers also Raj's childhood \nfriend Duryodhan. When Raj intervene he is beaten, publicly \nhumiliated and left for dead, and then he is taken to the \nhospital and survive by a miracle. After recovery Raj swears \nto take revenge on Duryodhan and Beharry and is trained to \nbecome an expert wrestler by a man named Baba Thakur. But \nthe question remains will Raj be able to cope with these \ntrainings and if he does will he be able to take on \nDuryodhan who is already an expert in this field?\n\n\nGeneral\n\nFormat                                   : Matroska\nFormat version                           : Version 4 / Version 2\nFile size                                : 689 MiB\nDuration                                 : 2h 52mn\nOverall bit rate                         : 559 Kbps\nEncoded date                             : UTC 2013-03-01 07:00:41\n\n\nVideo\n\nID                                       : 1\nFormat                                   : AVC\nFormat/Info                              : Advanced Video Codec\nFormat profile                           : &lt;a class=&quot;__cf_email__&quot; href=&quot;/cdn-cgi/l/email-protection&quot; data-cfemail=&quot;034b6a646b434f312d32&quot;&gt;[email&amp;#160;protected]&lt;/a&gt;&lt;script cf-hash='f9e31' type=&quot;text/javascript&quot;&gt;\n/* &lt;![CDATA[ */!function(){try{var t=&quot;currentScript&quot;in document?document.currentScript:function(){for(var t=document.getElementsByTagName(&quot;script&quot;),e=t.length;e--;)if(t[e].getAttribute(&quot;cf-hash&quot;))return t[e]}();if(t&amp;&amp;t.previousSibling){var e,r,n,i,c=t.previousSibling,a=c.getAttribute(&quot;data-cfemail&quot;);if(a){for(e=&quot;&quot;,r=parseInt(a.substr(0,2),16),n=2;a.length-n;n+=2)i=parseInt(a.substr(n,2),16)^r,e+=String.fromCharCode(i);e=document.createTextNode(e),c.parentNode.replaceChild(e,c)}}}catch(u){}}();/* ]]&gt; */&lt;/script&gt;\nFormat settings, CABAC                   : Yes\nFormat settings, ReFrames                : 6 frames\nCodec ID                                 : V_MPEG4/ISO/AVC\nDuration                                 : 2h 52mn\nBit rate                                 : 526 Kbps\nWidth                                    : 640 pixels\nHeight                                   : 272 pixels\nDisplay aspect ratio                     : 16:9\nOriginal display aspect ratio            : 2.35:1\nFrame rate mode                          : Constant\nFrame rate                               : 23.976 fps\nColor space                              : YUV\nChroma subsampling                       : 4:2:0\nBit depth                                : 8 bits\nScan type                                : Progressive\nBits/(Pixel*Frame)                       : 0.126\nStream size                              : 636 MiB (92%)\nWriting library                          : x264 core 112\nDefault                                  : Yes\nForced                                   : No\nColor primaries                          : BT.601 NTSC\nTransfer characteristics                 : BT.709\nMatrix coefficients                      : BT.601\n\nAudio\n\nID                                       : 2\nFormat                                   : MPEG Audio\nFormat version                           : Version 2\nFormat profile                           : Layer 3\nCodec ID                                 : A_MPEG/L3\nCodec ID/Hint                            : MP3\nDuration                                 : 2h 52mn\nBit rate mode                            : Constant\nBit rate                                 : 32.0 Kbps\nChannel(s)                               : 2 channels\nSampling rate                            : 16.0 KHz\nCompression mode                         : Lossy\nStream size                              : 39.4 MiB (6%)\nWriting library                          : LAMELAME\nDefault                                  : Yes\nForced                                   : No","torrent":{"xt":"urn:btih:c4ff88f8ab8694da51ef5e710d857ee3baa6570a","amp;dn":"Jigar+1992+%7BBRRip%7D+%7Bx264%7D+%7BHindi%7D+%7Brdx004%7D+%7BDMRG%7D","amp;tr":["udp%3A%2F%2Ftracker.openbittorrent.com%3A80","udp%3A%2F%2Fopen.demonii.com%3A1337","udp%3A%2F%2Ftracker.coppersurfer.tk%3A6969","udp%3A%2F%2Fexodus.desync.com%3A6969"],"infoHash":"c4ff88f8ab8694da51ef5e710d857ee3baa6570a","infoHashBuffer":{"type":"Buffer","data":[196,255,136,248,171,134,148,218,81,239,94,113,13,133,126,227,186,166,87,10]},"announce":[],"urlList":[]}}